<?xml version="1.0" standalone="no"?>
<!DOCTYPE svg PUBLIC "-//W3C//DTD SVG 20010904//EN"
 "http://www.w3.org/TR/2001/REC-SVG-20010904/DTD/svg10.dtd">
<svg version="1.0" xmlns="http://www.w3.org/2000/svg"
 width="900.000000pt" height="900.000000pt" viewBox="0 0 900.000000 900.000000"
 preserveAspectRatio="xMidYMid meet">
<metadata>
Created by potrace 1.11, written by Peter Selinger 2001-2013
</metadata>
<g transform="translate(0.000000,900.000000) scale(0.100000,-0.100000)"
fill="#000000" stroke="none">
<path d="M4153 8791 c-28 -4 -55 -10 -59 -14 -9 -8 90 1 146 13 l35 8 -35 0
c-19 -1 -58 -4 -87 -7z"/>
<path d="M4425 8791 c11 -4 56 -11 100 -14 44 -3 71 -2 60 2 -11 4 -56 11
-100 14 -44 3 -71 2 -60 -2z"/>
<path d="M4106 8739 c-63 -8 -118 -25 -250 -75 -32 -12 -74 -43 -120 -87 l-71
-68 35 5 c34 5 35 5 13 -11 -20 -14 -23 -24 -23 -90 0 -53 -3 -73 -12 -72 -44
5 -52 -20 -14 -45 21 -13 23 -20 16 -44 -4 -16 -13 -39 -20 -52 -10 -19 -9
-25 9 -41 25 -24 26 -27 4 -51 -13 -15 -14 -23 -5 -41 6 -12 11 -31 9 -42 -2
-16 5 -21 31 -23 32 -3 45 -21 17 -23 -8 -1 -19 -2 -24 -3 -17 -2 -153 -110
-168 -133 -8 -12 -24 -25 -35 -29 -11 -3 -17 -8 -14 -12 3 -3 16 -1 29 5 70
34 220 83 251 83 12 0 6 -36 -9 -56 -26 -34 -19 -47 15 -28 53 32 44 6 -25
-68 -49 -53 -63 -74 -51 -76 9 -2 33 14 54 35 93 96 98 75 7 -31 -36 -42 -70
-87 -76 -99 -7 -12 -18 -26 -26 -31 -21 -12 -58 -100 -73 -171 -7 -33 -16 -67
-20 -75 -14 -28 -20 -92 -8 -88 6 2 13 15 15 29 2 13 8 26 13 27 21 7 40 34
40 55 1 20 31 67 43 67 3 0 -1 -24 -8 -52 -7 -29 -17 -97 -24 -151 -14 -121
-60 -267 -139 -437 -8 -19 -28 -49 -43 -67 l-27 -31 -6 33 c-5 23 -1 45 9 64
21 41 86 296 85 331 -1 16 -30 -38 -30 -55 0 -12 -4 -25 -9 -31 -18 -19 -101
-248 -101 -279 0 -8 -4 -15 -9 -17 -5 -1 -31 -51 -59 -110 l-50 -107 29 6 c33
6 34 3 14 -52 -18 -52 -18 -65 0 -65 17 0 41 51 64 138 19 73 35 81 38 20 3
-58 34 -229 45 -250 6 -13 38 -278 38 -322 0 -4 6 -6 14 -3 17 7 20 -5 35
-143 33 -282 43 -562 21 -575 -6 -4 -10 7 -10 27 0 60 -13 110 -29 116 -9 3
-19 10 -23 16 -11 16 -28 -13 -28 -48 0 -39 -21 -96 -36 -96 -11 0 -24 65 -24
126 0 64 -21 84 -42 39 -10 -23 -13 -24 -29 -9 -17 15 -22 13 -79 -30 -34 -26
-65 -44 -71 -41 -5 4 -24 -3 -43 -14 -18 -12 -47 -21 -64 -21 -21 0 -37 -8
-51 -26 -27 -34 -26 -44 2 -44 13 0 32 -7 43 -15 11 -8 41 -14 73 -15 46 0 52
-2 41 -15 -7 -8 -21 -15 -32 -15 -30 0 -112 -84 -141 -145 -20 -39 -35 -57
-53 -61 -13 -3 -29 -15 -35 -25 -6 -13 -21 -19 -43 -19 -26 0 -39 -8 -65 -40
-18 -22 -41 -40 -51 -40 -21 0 -27 -24 -10 -35 16 -10 1 -25 -25 -25 -23 0
-108 -50 -120 -71 -4 -5 -18 -9 -33 -9 -38 0 -92 -35 -92 -60 0 -29 30 -41 60
-24 28 15 110 19 110 5 0 -5 12 -14 28 -19 15 -6 36 -17 47 -25 30 -24 9 -37
-71 -43 -38 -3 -75 -7 -82 -9 -19 -7 -5 -25 19 -25 16 0 20 -6 17 -27 -2 -18
-9 -28 -19 -27 -12 1 -16 -13 -18 -75 l-2 -77 36 -17 c31 -15 34 -20 25 -37
-9 -17 -8 -21 7 -26 93 -30 108 -42 65 -50 -19 -4 -32 -13 -32 -21 0 -8 -9
-17 -20 -20 -24 -6 -24 -7 -4 -38 14 -22 14 -24 -3 -33 -10 -5 -33 -13 -50
-17 -41 -8 -48 -45 -9 -45 13 0 26 -7 30 -15 3 -8 12 -15 20 -15 19 0 28 -25
31 -83 2 -33 -1 -47 -8 -44 -7 2 -14 12 -16 23 -4 25 -20 44 -37 44 -8 0 -23
9 -34 20 -12 12 -31 19 -48 18 -15 -1 -34 2 -42 7 -14 9 -70 21 -141 32 -34 4
-36 3 -36 -21 0 -15 3 -29 8 -32 5 -2 6 -25 4 -51 -3 -28 0 -52 7 -61 7 -8 13
-36 14 -61 4 -179 3 -169 23 -164 22 6 30 -30 20 -87 -5 -29 -7 -31 -9 -10 -3
28 -6 51 -9 63 -3 21 -67 -64 -69 -93 -2 -19 1 -29 8 -25 14 9 25 -24 12 -37
-8 -8 -13 -7 -17 3 -5 13 -16 13 -68 4 -34 -5 -68 -14 -75 -18 -17 -11 -6 -27
19 -27 10 0 19 -4 19 -10 0 -5 6 -10 14 -10 7 0 18 -15 24 -32 5 -18 10 -25
11 -15 1 9 7 17 15 17 18 0 29 -27 13 -33 -18 -6 -8 -89 14 -113 20 -21 26
-54 10 -54 -19 0 -23 -41 -6 -54 10 -7 16 -19 13 -27 -3 -8 0 -25 7 -39 19
-36 23 -100 7 -100 -10 0 -32 60 -32 88 0 19 -3 20 -26 12 -36 -14 -54 11 -51
70 1 34 -2 45 -13 45 -43 2 -70 18 -70 41 0 13 -9 28 -21 35 -14 7 -19 17 -16
30 8 31 -18 5 -34 -32 -9 -24 -10 -36 -1 -50 7 -11 8 -20 2 -24 -6 -3 -10 -15
-10 -26 0 -11 -8 -28 -17 -37 -16 -16 -16 -17 0 -20 21 -4 22 -16 0 -37 -10
-10 -12 -19 -6 -23 17 -12 31 -67 22 -84 -6 -11 -2 -24 12 -42 17 -22 20 -35
15 -67 -6 -35 -4 -41 16 -49 l23 -9 -22 0 c-16 -1 -23 -7 -23 -20 0 -11 -5
-23 -11 -27 -8 -5 -10 6 -5 37 3 24 2 51 -4 59 -8 12 -10 9 -10 -12 0 -15 -5
-30 -10 -33 -6 -4 -8 -15 -5 -24 3 -11 -5 -28 -20 -45 -21 -23 -25 -36 -25
-92 0 -48 4 -66 15 -70 10 -4 15 -20 15 -48 0 -29 6 -47 20 -59 23 -20 27 -57
5 -57 -20 0 -19 -20 2 -37 16 -12 15 -13 -14 -8 -21 4 -33 3 -33 -4 0 -6 -9
-11 -21 -11 -16 0 -19 -4 -14 -22 l7 -23 -21 23 c-24 25 -56 30 -48 8 3 -8 11
-34 17 -58 11 -39 10 -44 -12 -62 -15 -12 -19 -20 -10 -23 6 -3 12 -9 12 -14
0 -6 -4 -8 -9 -4 -11 6 -43 -34 -35 -46 2 -4 0 -10 -5 -14 -35 -21 -55 146
-46 377 4 106 9 267 9 358 2 207 22 483 40 564 8 35 20 108 25 164 13 125 42
261 70 325 12 27 21 55 21 63 0 9 16 49 35 90 19 42 44 110 56 152 11 42 38
109 60 148 49 91 90 200 83 219 -4 8 -16 15 -28 15 -34 0 -96 47 -96 73 0 40
30 139 57 189 22 40 24 52 15 72 -16 36 36 104 157 206 56 47 123 103 150 126
42 36 56 42 113 47 121 11 198 62 198 131 0 23 9 40 31 62 17 16 38 44 45 61
8 18 26 41 41 50 32 21 149 138 170 170 10 16 13 34 8 63 -5 31 -2 47 14 74
39 62 32 78 -79 197 -40 44 -50 61 -50 90 0 24 -11 51 -35 85 -43 60 -45 103
-10 178 14 30 23 60 20 69 -4 8 17 61 46 118 69 139 115 269 124 353 4 38 9
76 12 83 6 15 1 12 -202 -82 -312 -145 -664 -396 -940 -669 -551 -547 -891
-1214 -1010 -1986 -32 -205 -35 -237 -41 -420 -6 -182 6 -431 26 -535 5 -27
19 -108 31 -180 137 -838 600 -1614 1293 -2168 480 -383 1118 -650 1766 -739
127 -17 625 -17 790 1 1194 127 2252 858 2789 1929 188 375 308 781 363 1232
17 137 16 571 -1 720 -15 131 -77 449 -116 590 -74 268 -197 559 -351 826
-331 575 -877 1086 -1483 1388 -93 46 -167 77 -436 181 -46 17 -64 31 -78 56
l-19 34 7 -30 c4 -16 14 -57 22 -90 9 -33 17 -107 20 -165 4 -90 2 -113 -16
-158 -30 -76 -44 -217 -39 -409 l4 -168 56 -145 c31 -80 77 -183 103 -230 26
-47 50 -92 54 -100 4 -8 19 -21 33 -27 14 -7 42 -33 62 -57 20 -25 45 -48 56
-51 17 -5 20 -15 20 -68 0 -75 24 -132 71 -170 109 -89 253 -188 376 -257 88
-49 120 -76 310 -264 206 -203 213 -211 259 -305 37 -75 57 -137 92 -281 24
-102 55 -230 69 -285 19 -80 26 -144 33 -320 5 -121 7 -236 4 -255 -8 -54 -14
-191 -19 -461 -3 -171 -9 -270 -20 -324 -13 -60 -16 -124 -13 -284 3 -183 1
-211 -16 -248 -10 -24 -21 -43 -25 -43 -6 0 -9 40 -11 130 0 19 -5 60 -11 90
-24 119 -26 146 -18 163 7 11 5 25 -3 40 -7 12 -11 31 -10 42 7 63 14 85 24
79 7 -5 9 1 5 17 -3 13 -8 42 -10 64 -3 22 -2 32 0 23 2 -10 9 -18 14 -18 15
0 22 29 10 43 -17 22 -16 70 3 100 13 19 15 31 8 40 -5 6 -12 28 -14 47 -3 19
-8 43 -13 53 -5 13 -3 17 6 15 9 -2 13 5 12 22 -1 14 1 32 4 40 4 13 7 319 3
425 -1 36 -2 38 -12 17 -8 -15 -17 -21 -30 -17 -13 5 -23 -3 -38 -28 -12 -20
-27 -38 -35 -40 -7 -3 -15 -16 -18 -29 -4 -22 -4 -22 -6 -1 0 12 10 43 24 69
14 26 25 60 25 75 0 18 7 32 20 39 15 8 18 17 14 39 -4 16 -1 32 5 35 6 4 11
20 11 35 0 20 6 30 20 34 17 4 19 9 10 32 -5 14 -10 67 -10 116 0 115 -18 230
-38 247 -9 6 -12 12 -7 12 5 0 4 5 -2 11 -6 6 -9 26 -6 45 3 19 1 40 -6 47 -6
8 -15 42 -20 78 -17 110 -67 233 -100 244 -21 6 -91 87 -91 104 0 6 -15 17
-32 25 -18 7 -43 25 -55 40 -13 14 -32 26 -43 26 -12 0 -31 6 -43 14 -12 8
-38 17 -58 20 -21 4 -41 12 -47 19 -13 17 -32 99 -32 139 l0 34 -72 1 c-53 1
-78 -3 -90 -14 -10 -9 -25 -13 -34 -9 -15 6 -16 8 0 24 9 10 16 23 16 29 0 16
-97 24 -128 11 l-27 -12 28 -4 c15 -2 27 -8 27 -13 0 -11 -30 -12 -49 0 -8 5
-24 3 -40 -5 -14 -8 -38 -14 -53 -14 -32 0 -44 -15 -28 -35 16 -20 116 -20
153 0 33 17 50 12 72 -21 12 -19 13 -25 3 -28 -31 -10 -185 -15 -194 -7 -12
13 -66 1 -61 -13 2 -6 17 -18 34 -27 35 -18 83 -70 107 -117 21 -40 15 -50
-16 -30 -13 8 -36 18 -52 22 -16 4 -59 27 -97 52 -65 42 -111 55 -124 34 -7
-11 -135 -2 -149 11 -6 5 -18 9 -27 9 -9 0 -42 11 -73 25 -31 14 -70 25 -87
25 -20 0 -32 6 -37 19 -9 23 -142 95 -154 83 -14 -14 76 -90 116 -97 20 -4 36
-11 36 -16 0 -5 12 -9 28 -9 32 -1 79 -37 84 -65 5 -33 -52 -33 -91 1 -17 14
-43 27 -56 28 -14 0 -27 8 -30 16 -5 16 -103 56 -112 46 -3 -3 3 -9 13 -13 30
-11 74 -45 68 -54 -6 -10 -17 -6 -108 30 -25 10 -32 9 -50 -7 -31 -28 -56 -34
-63 -16 -4 11 2 23 16 33 12 9 19 20 15 24 -11 11 -44 8 -44 -3 0 -6 -16 -18
-35 -27 -21 -10 -35 -24 -35 -35 0 -14 -8 -18 -36 -18 -29 0 -35 3 -30 16 3 9
6 18 6 20 0 2 11 4 25 4 18 0 25 5 25 19 0 11 9 26 20 34 14 10 20 26 21 61 2
28 5 42 10 34 6 -10 11 -10 20 -1 10 10 9 16 -4 31 -21 23 -22 42 -2 42 8 0
15 3 15 6 0 8 -27 34 -37 34 -4 0 -8 23 -9 50 l0 51 30 -7 c17 -4 37 -10 46
-15 73 -39 155 -48 214 -24 36 15 45 28 26 40 -5 3 -10 19 -10 34 0 50 -104
134 -136 109 -14 -10 -37 65 -29 93 5 14 -1 29 -17 46 -16 18 -19 27 -10 30
16 6 15 52 -3 87 -19 36 -21 126 -3 108 10 -10 15 -7 24 10 11 21 12 21 29
-11 25 -49 42 -26 23 31 -11 32 -12 58 -5 103 6 40 5 85 -2 135 -7 41 -11 136
-9 210 5 271 -11 663 -33 787 -34 198 -62 320 -78 336 -15 15 -14 27 3 27 22
0 -10 98 -44 135 -15 17 -33 41 -40 53 -6 13 -14 21 -17 19 -2 -3 3 -19 12
-36 9 -19 12 -37 8 -46 -7 -11 -17 -5 -48 30 -21 25 -45 45 -52 45 -8 0 -13
13 -13 38 0 20 -3 47 -6 60 -9 31 11 28 42 -5 19 -22 22 -24 17 -8 -12 31 -35
58 -65 78 -16 10 -28 26 -28 37 0 11 -9 34 -20 52 -24 39 -25 58 -5 58 18 0
19 5 4 29 -7 10 -9 30 -5 45 5 22 12 27 34 24 20 -2 29 3 39 22 7 14 13 33 13
43 0 32 58 15 157 -45 65 -39 219 -154 229 -169 3 -5 10 -9 15 -9 14 0 1 39
-25 75 -13 17 -25 38 -29 48 -3 9 -12 17 -20 17 -25 0 -56 58 -68 127 -13 75
-33 106 -60 98 -9 -3 -20 -1 -24 5 -3 5 2 10 12 10 24 0 67 78 53 95 -6 7 -13
37 -16 66 -3 29 -10 59 -16 67 -10 11 -8 13 8 10 15 -2 18 2 16 22 -1 14 -7
35 -13 46 -8 15 -8 27 -1 41 12 21 10 22 -52 24 l-29 0 32 33 32 33 -31 32
c-17 17 -35 31 -40 31 -5 0 -28 15 -52 33 -24 19 -66 42 -94 52 -55 21 -84 42
-84 62 0 16 -14 16 -80 2 -43 -9 -54 -8 -69 5 -10 9 -40 19 -67 22 -27 4 -54
11 -61 16 -17 13 -324 19 -407 7z m-356 -699 c0 -5 -7 -10 -15 -10 -8 0 -15 5
-15 10 0 6 7 10 15 10 8 0 15 -4 15 -10z m878 -537 c54 6 67 0 95 -45 10 -16
26 -28 37 -28 14 0 20 -7 20 -21 0 -11 5 -29 11 -40 7 -15 6 -27 -5 -50 -25
-50 -1 -129 50 -167 18 -13 25 -25 21 -36 -7 -18 -64 -21 -185 -7 -81 10 -136
0 -146 -26 -10 -24 13 -83 32 -84 14 0 14 -2 2 -6 -8 -3 -29 -20 -46 -37 -18
-17 -48 -44 -68 -59 -43 -34 -60 -89 -51 -157 6 -45 5 -47 -24 -60 -19 -8 -31
-20 -31 -31 0 -11 -4 -19 -10 -19 -16 0 -12 -46 5 -60 17 -14 20 -46 6 -54 -5
-3 -12 -17 -15 -30 -7 -27 19 -63 60 -84 25 -13 37 -47 20 -60 -6 -5 -33 -17
-59 -27 -62 -23 -74 -45 -50 -93 18 -37 18 -37 83 -37 69 -1 90 -8 90 -31 0
-10 -13 -14 -47 -15 -211 -5 -243 -10 -243 -38 0 -23 -81 -77 -137 -93 -21 -5
-44 -15 -50 -20 -15 -12 -17 -57 -3 -78 7 -12 12 -12 29 4 20 19 22 18 81 -13
33 -18 60 -29 60 -26 0 14 65 -49 89 -86 19 -29 34 -41 61 -45 19 -4 45 -14
58 -22 21 -14 26 -14 53 2 26 15 30 16 35 2 3 -9 12 -16 20 -16 7 0 25 -5 39
-12 22 -10 25 -17 20 -37 -3 -15 -6 -36 -6 -49 1 -21 -3 -23 -35 -20 -33 2
-38 -1 -53 -32 -9 -19 -25 -36 -36 -39 -27 -5 -85 -51 -85 -67 0 -17 -40 -28
-105 -28 -43 0 -58 5 -105 40 -72 54 -220 194 -220 209 0 6 -13 21 -30 33 -16
13 -30 27 -30 33 0 6 -16 43 -36 83 -19 41 -34 80 -32 87 3 14 -17 91 -32 120
-4 8 -13 42 -20 75 -7 32 -20 75 -30 94 -23 46 -37 88 -61 183 -31 126 -24
177 30 239 36 40 39 41 108 44 l72 4 26 -37 c14 -21 25 -43 25 -49 0 -36 90
-49 133 -19 32 22 50 19 42 -6 -5 -15 -4 -19 4 -15 6 4 11 13 11 21 0 8 20 23
44 34 45 20 83 62 71 81 -3 5 1 20 9 32 34 49 14 179 -34 219 -31 26 -31 27
-16 57 23 44 124 142 147 142 10 0 19 5 19 11 0 6 13 26 29 45 28 31 51 88 51
125 0 22 59 99 76 99 8 0 14 5 14 10 0 6 16 20 35 31 20 12 38 32 41 46 5 17
9 21 14 12 6 -8 23 -10 58 -6z m-938 -77 c0 -8 -4 -18 -10 -21 -5 -3 -10 3
-10 14 0 12 5 21 10 21 6 0 10 -6 10 -14z m86 -120 c-9 -25 -16 -56 -15 -69 1
-61 -35 -197 -52 -197 -37 0 -36 110 1 195 23 54 70 128 77 121 3 -2 -3 -25
-11 -50z m159 -58 c-4 -18 -11 -37 -15 -43 -4 -5 -19 -48 -33 -95 -15 -47 -35
-112 -45 -144 -10 -33 -25 -62 -32 -64 -35 -12 34 241 90 328 18 27 34 50 37
50 2 0 1 -15 -2 -32z m970 -260 c49 -25 58 -50 24 -68 -16 -9 -35 -7 -87 10
-81 26 -152 60 -152 71 0 5 38 9 85 9 68 0 94 -4 130 -22z m-850 -213 c34 -33
31 -51 -12 -74 -30 -16 -33 -14 -33 15 0 14 -5 34 -10 45 -23 42 17 53 55 14z
m755 -31 c0 -8 -4 -12 -10 -9 -5 3 -10 10 -10 16 0 5 5 9 10 9 6 0 10 -7 10
-16z m177 -194 c-5 -40 -3 -50 8 -50 17 0 20 -35 5 -45 -5 -3 -7 -19 -3 -35 5
-25 2 -30 -14 -30 -11 0 -28 -9 -38 -20 -10 -11 -25 -19 -34 -18 -8 2 -17 -5
-19 -15 -2 -11 -12 -27 -23 -38 -21 -21 -25 -49 -8 -66 18 -18 1 -35 -21 -21
-23 15 -37 4 -22 -15 7 -8 9 -17 6 -20 -4 -4 -16 5 -27 19 -11 14 -26 23 -34
20 -18 -7 -103 73 -103 96 0 12 8 18 23 18 19 0 18 2 -11 20 -18 11 -35 27
-38 35 -4 8 -17 15 -30 15 -13 0 -24 4 -24 9 0 12 25 21 56 21 14 0 27 7 30
15 4 8 12 15 20 15 8 0 14 4 14 9 0 6 -9 8 -20 6 -11 -2 -20 0 -20 4 0 17 42
45 68 46 64 2 134 19 139 33 8 18 60 41 97 42 29 0 29 0 23 -50z m-337 -361
c21 -32 29 -54 23 -60 -12 -12 -73 0 -73 14 0 6 -12 24 -27 39 -26 27 -26 28
-7 43 32 25 51 17 84 -36z m-286 -188 c33 -3 61 -11 63 -18 3 -8 -22 -12 -90
-11 -103 0 -124 7 -113 33 5 14 13 16 44 10 20 -4 64 -10 96 -14z m-538 -547
c2 -61 -4 -84 -20 -84 -8 0 -19 -7 -26 -15 -18 -22 -50 -19 -50 4 0 10 16 45
35 77 19 32 35 62 35 67 0 5 6 7 13 4 7 -2 13 -23 13 -53z m1259 -34 c3 -5 1
-10 -4 -10 -6 0 -11 5 -11 10 0 6 2 10 4 10 3 0 8 -4 11 -10z m912 -42 c27
-24 77 -63 112 -88 80 -57 141 -110 141 -122 0 -14 -75 31 -129 77 -26 23 -71
55 -99 73 -48 31 -82 69 -82 92 0 16 6 13 57 -32z m-2454 -365 c-3 -7 -9 -10
-14 -7 -11 6 -12 38 -2 48 9 9 22 -25 16 -41z m192 -34 c10 -15 -1 -23 -20
-15 -9 3 -13 10 -10 16 8 13 22 13 30 -1z m-282 -12 c8 -22 -22 -157 -51 -224
-28 -66 -42 -79 -42 -39 0 41 37 218 53 254 11 24 32 29 40 9z m81 -29 c-15
-92 -49 -205 -65 -223 -19 -19 -19 -19 -19 12 0 17 7 48 16 69 9 22 23 64 30
94 19 74 22 80 33 80 6 0 8 -14 5 -32z m233 -34 c8 -21 -13 -42 -28 -27 -13
13 -5 43 11 43 6 0 13 -7 17 -16z m-629 -196 c7 -7 12 -20 12 -30 0 -15 -9
-18 -56 -18 -64 0 -69 15 -13 42 42 21 42 21 57 6z m1922 -32 c0 -19 -39 -31
-53 -17 -9 9 -8 14 3 21 22 14 50 12 50 -4z m-155 -6 c10 -16 -14 -40 -39 -40
-12 0 -25 -9 -31 -22 -6 -14 -22 -25 -40 -28 -20 -3 -31 -12 -33 -25 -4 -31
-37 -48 -62 -33 -23 15 -25 27 -6 53 8 12 20 16 35 12 16 -4 25 1 36 24 11 20
23 29 40 29 14 0 29 8 35 20 11 21 54 27 65 10z m80 -50 c0 -9 -11 -16 -27
-18 -30 -4 -31 -2 -22 23 8 20 49 16 49 -5z m-1080 -5 c0 -5 -15 -11 -32 -13
-25 -3 -33 1 -33 13 0 12 8 16 33 13 17 -2 32 -7 32 -13z m1010 -45 c0 -10
-12 -16 -32 -18 -24 -2 -33 1 -33 12 0 8 6 17 13 20 22 9 52 1 52 -14z m-256
-29 c21 -13 5 -41 -23 -41 -30 0 -42 16 -26 35 14 17 29 19 49 6z m166 -17 c0
-21 -32 -31 -48 -15 -8 8 -6 15 9 26 24 18 39 14 39 -11z m-783 3 c15 -12 14
-14 -13 -24 -29 -11 -34 -7 -23 21 7 19 14 19 36 3z m42 -43 c5 -14 4 -15 -9
-4 -17 14 -19 20 -6 20 5 0 12 -7 15 -16z m-1055 -135 c-11 -11 -23 -18 -27
-15 -7 8 31 45 40 39 4 -2 -2 -13 -13 -24z m-339 -78 c0 -6 -4 -13 -10 -16 -5
-3 -10 1 -10 9 0 9 5 16 10 16 6 0 10 -4 10 -9z m700 -46 c0 -8 -4 -15 -10
-15 -5 0 -10 7 -10 15 0 8 5 15 10 15 6 0 10 -7 10 -15z m289 -31 c6 -13 22
-29 35 -34 20 -7 25 -17 28 -57 3 -37 0 -52 -13 -66 -13 -12 -17 -26 -13 -47
8 -38 -13 -47 -55 -26 -16 9 -38 16 -49 16 -22 0 -60 41 -74 82 -8 22 -7 45 3
85 10 46 18 58 41 68 41 17 84 8 97 -21z m136 -25 c0 -27 -29 -37 -55 -19 -13
9 -12 13 9 31 29 24 46 20 46 -12z m261 -14 c20 -20 34 -25 61 -23 40 3 57
-16 22 -25 -17 -5 -20 -11 -15 -31 4 -15 0 -41 -8 -61 -13 -29 -13 -35 -1 -35
40 0 56 -62 17 -68 -16 -2 -25 4 -34 25 -7 15 -13 29 -14 31 -1 2 -15 -3 -32
-12 -23 -12 -37 -13 -68 -5 -22 6 -44 15 -51 21 -8 7 -22 4 -42 -8 -25 -15
-32 -15 -45 -5 -23 19 -20 38 9 65 14 13 25 32 25 42 0 27 37 84 54 84 8 0 16
7 20 15 9 25 73 19 102 -10z m-584 -32 c10 -9 18 -22 18 -29 0 -16 -31 -34
-59 -34 -12 0 -21 -4 -21 -8 0 -16 25 -32 49 -32 31 0 61 -27 61 -55 0 -16 -9
-24 -35 -32 -25 -8 -35 -8 -38 0 -2 7 -18 -5 -35 -25 -40 -45 -63 -41 -97 16
-34 59 -30 130 11 163 16 12 38 23 49 23 11 1 31 7 45 15 32 18 30 18 52 -2z
m-214 -70 c5 -17 -26 -29 -40 -15 -6 6 -7 15 -3 22 9 14 37 9 43 -7z m1050
-10 c5 -17 -26 -29 -40 -15 -6 6 -7 15 -3 22 9 14 37 9 43 -7z m157 -3 c3 -5
-3 -10 -14 -10 -12 0 -21 5 -21 10 0 6 6 10 14 10 8 0 18 -4 21 -10z m45 0 c0
-5 -7 -10 -16 -10 -8 0 -12 5 -9 10 3 6 10 10 16 10 5 0 9 -4 9 -10z m-1642
-55 c34 -10 53 -22 57 -35 4 -12 17 -28 31 -36 13 -9 24 -23 24 -30 0 -17 21
-56 35 -66 5 -4 15 -22 21 -40 6 -18 19 -35 30 -38 10 -3 20 -12 22 -20 7 -32
35 -80 43 -74 5 3 25 -4 43 -15 36 -22 55 -66 37 -84 -6 -6 -11 -30 -11 -54 0
-33 -4 -43 -16 -43 -12 0 -10 -6 10 -21 14 -11 30 -17 36 -14 6 4 10 -13 10
-44 0 -27 -4 -53 -10 -56 -5 -3 -10 -17 -10 -31 0 -13 -5 -24 -11 -24 -6 0 -8
-8 -5 -17 3 -10 0 -30 -8 -44 -9 -17 -10 -32 -4 -43 5 -9 8 -36 6 -59 -3 -38
-1 -42 22 -46 14 -1 28 -8 32 -14 9 -14 -10 -48 -25 -46 -29 3 -34 -3 -34 -46
0 -28 -9 -62 -25 -93 -24 -46 -25 -56 -18 -118 15 -126 17 -131 61 -138 40 -6
53 -28 24 -40 -19 -7 -19 -54 0 -93 14 -28 84 -69 109 -64 5 1 16 -1 24 -4 11
-4 12 -8 3 -19 -8 -10 -9 -16 -1 -21 5 -3 10 -15 10 -26 0 -10 6 -19 14 -19
36 0 22 -22 -28 -45 -38 -17 -72 -25 -113 -25 -67 0 -79 -6 -88 -41 -8 -34 15
-44 62 -28 44 14 64 0 45 -31 -14 -23 0 -27 18 -5 14 17 40 20 40 5 0 -5 6
-10 14 -10 9 0 12 7 9 19 -7 26 10 33 80 33 84 -1 107 -11 122 -55 14 -41 10
-46 -40 -65 -49 -17 -77 -21 -163 -23 l-82 -1 -41 -47 c-36 -41 -40 -50 -35
-83 4 -22 2 -39 -5 -43 -6 -4 -9 -21 -8 -39 1 -17 -4 -50 -11 -74 -11 -35 -11
-50 -1 -78 11 -30 10 -39 -3 -59 -21 -33 -83 -58 -116 -49 -14 5 -34 8 -45 8
-18 1 -20 8 -20 61 -1 66 -22 144 -41 152 -9 3 -10 11 -5 21 30 60 38 89 30
111 -6 14 -5 37 0 57 7 25 6 34 -5 38 -22 8 -16 26 9 26 34 0 92 23 93 38 2
28 5 32 18 32 9 0 12 8 8 27 -4 23 -6 24 -17 10 -7 -9 -14 -14 -17 -12 -11 12
-88 -8 -88 -22 0 -11 -4 -11 -21 -3 -11 6 -39 12 -61 13 -36 2 -45 7 -61 35
-17 28 -18 39 -8 75 30 112 32 219 5 282 -11 28 -14 70 -12 183 3 124 0 156
-16 204 -19 57 -19 58 1 164 27 138 24 256 -7 339 -19 48 -25 91 -31 220 -4
88 -5 208 -2 268 l6 107 27 0 c14 0 49 -7 78 -15z m1442 -75 c26 -26 40 -62
40 -103 0 -41 -21 -71 -59 -87 -26 -10 -36 -10 -68 7 -29 15 -41 30 -52 62
-19 60 -5 123 29 132 49 14 90 9 110 -11z m-521 -6 c83 -15 121 -34 121 -59 0
-7 7 -18 15 -25 21 -17 19 -25 -10 -38 -29 -13 -34 -42 -7 -42 10 0 27 7 38
15 10 8 22 15 26 15 10 0 78 -98 78 -113 0 -19 -21 -37 -42 -37 -10 0 -18 -7
-18 -16 0 -12 5 -14 18 -8 27 12 73 8 83 -7 5 -8 8 -25 8 -39 0 -14 5 -43 11
-65 14 -46 15 -59 12 -135 -2 -43 -5 -51 -13 -37 -5 9 -21 17 -34 17 -18 0
-25 -7 -30 -30 -4 -16 -11 -32 -16 -35 -5 -4 -21 -31 -35 -61 -14 -30 -30 -54
-35 -54 -5 0 -9 -5 -9 -11 0 -7 10 -9 24 -5 28 7 76 -8 76 -24 0 -16 -66 -80
-135 -130 -33 -24 -64 -49 -70 -55 -13 -14 -95 -45 -118 -45 -10 0 -31 7 -47
15 -27 14 -29 13 -44 -10 -17 -25 -38 -27 -126 -10 -14 3 -46 8 -72 11 -62 8
-109 53 -133 126 -23 70 -31 249 -16 341 16 97 33 180 39 191 3 5 22 57 42
117 53 154 99 206 215 242 66 20 102 20 204 1z m641 -48 c0 -20 -26 -40 -35
-26 -10 16 2 40 20 40 8 0 15 -6 15 -14z m-1122 -18 c-3 -7 -11 -13 -18 -13
-7 0 -15 6 -17 13 -3 7 4 12 17 12 13 0 20 -5 18 -12z m792 -38 c0 -5 -4 -10
-10 -10 -5 0 -10 5 -10 10 0 6 5 10 10 10 6 0 10 -4 10 -10z m-740 -15 c15
-18 6 -45 -13 -45 -20 0 -40 27 -33 45 7 19 30 19 46 0z m788 -17 c-7 -19 -38
-22 -38 -4 0 10 9 16 21 16 12 0 19 -5 17 -12z m-865 -140 c-2 -5 -11 -8 -19
-8 -17 0 -18 22 -2 38 10 10 14 9 19 -5 4 -10 5 -21 2 -25z m1012 32 c4 -6 1
-17 -5 -26 -15 -18 -42 0 -33 22 6 16 29 19 38 4z m-995 -110 c14 -26 5 -40
-24 -40 -12 0 -27 -5 -33 -11 -7 -7 -12 -3 -17 16 -12 47 52 76 74 35z m950
-16 c0 -19 -39 -18 -47 2 -3 9 0 20 8 24 15 10 39 -6 39 -26z m20 -142 c0 -14
-11 -21 -26 -15 -21 8 -17 23 6 23 11 0 20 -4 20 -8z m-192 -189 c-4 -22 -38
-30 -49 -12 -11 19 -2 29 27 29 19 0 25 -5 22 -17z m327 -31 c0 -18 -20 -15
-23 4 -3 10 1 15 10 12 7 -3 13 -10 13 -16z m-231 -108 c3 -9 4 -20 1 -25 -8
-11 -45 12 -45 28 0 19 37 16 44 -3z m-179 -144 c3 -5 1 -10 -4 -10 -6 0 -11
5 -11 10 0 6 2 10 4 10 3 0 8 -4 11 -10z m245 -12 c40 -29 49 -73 20 -104 -13
-13 -39 -29 -58 -35 -33 -11 -37 -10 -59 16 -30 35 -27 75 7 92 14 7 25 18 26
25 0 7 2 16 2 21 3 14 33 7 62 -15z m-955 -9 c10 -16 -4 -59 -19 -59 -25 0
-39 26 -26 49 12 23 35 28 45 10z m832 -11 c-3 -8 -6 -5 -6 6 -1 11 2 17 5 13
3 -3 4 -12 1 -19z m-87 -8 c0 -5 -4 -10 -10 -10 -5 0 -10 5 -10 10 0 6 5 10
10 10 6 0 10 -4 10 -10z m-255 -81 c4 -5 4 -21 1 -35 -5 -20 -13 -24 -41 -24
-39 0 -44 13 -19 48 16 23 48 29 59 11z m-551 -50 c-7 -12 -31 -11 -39 1 -4 6
-1 18 6 26 12 14 14 14 26 -2 7 -9 10 -21 7 -25z m280 19 c17 -27 -4 -41 -45
-31 -24 7 -35 16 -37 32 -3 20 0 22 34 19 21 -2 41 -10 48 -20z m-106 -100 c1
-24 -7 -59 -16 -78 -23 -48 -54 -51 -92 -10 -25 27 -30 40 -30 82 0 44 4 54
36 86 l37 37 32 -37 c24 -29 32 -48 33 -80z m596 63 c37 -24 38 -26 32 -71 -5
-36 -13 -51 -43 -77 -22 -19 -49 -33 -65 -33 -51 0 -125 88 -109 131 3 9 26
32 51 52 51 40 71 39 134 -2z m154 -55 c-2 -15 -10 -21 -27 -21 -30 0 -37 17
-16 38 20 21 47 10 43 -17z m-485 -8 c46 -44 60 -73 53 -113 -9 -46 -39 -70
-87 -69 -48 2 -72 21 -104 87 -31 61 -31 65 2 99 39 41 90 39 136 -4z m-177
-159 c10 -16 -18 -40 -35 -29 -12 7 -12 11 -2 24 16 19 27 20 37 5z m684 -9
c0 -5 -4 -10 -10 -10 -5 0 -10 5 -10 10 0 6 5 10 10 10 6 0 10 -4 10 -10z
m-597 -162 c12 -7 32 -11 43 -9 29 3 37 -24 19 -60 -16 -31 -42 -38 -51 -15
-4 10 -15 13 -38 9 -20 -3 -45 1 -64 11 -48 25 -41 40 28 62 19 7 36 12 38 13
2 1 13 -4 25 -11z m257 -223 c7 -8 9 -22 6 -31 -5 -14 -7 -14 -22 0 -15 16
-28 20 -51 17 -21 -3 -15 9 10 19 32 13 43 12 57 -5z m98 -27 c3 -28 -23 -57
-38 -42 -12 12 10 76 25 71 5 -2 11 -15 13 -29z m110 -16 c6 -18 -15 -14 -22
4 -4 10 -1 14 6 12 6 -2 14 -10 16 -16z m32 -12 c0 -5 -2 -10 -4 -10 -3 0 -8
5 -11 10 -3 6 -1 10 4 10 6 0 11 -4 11 -10z m-103 -97 c-3 -10 -5 -4 -5 12 0
17 2 24 5 18 2 -7 2 -21 0 -30z m-2186 -33 c-5 -28 -8 -31 -14 -17 -4 10 -2
28 4 39 15 28 19 19 10 -22z m1614 34 c9 -4 21 -18 26 -31 5 -14 18 -27 29
-30 11 -3 20 -8 20 -12 0 -15 -25 -31 -49 -31 -15 0 -35 -7 -45 -15 -11 -8
-39 -15 -63 -15 -37 0 -45 4 -53 26 -25 66 7 114 76 114 23 0 50 -3 59 -6z
m410 -53 c0 -26 -30 -36 -74 -22 -45 13 -52 27 -20 40 30 11 94 -1 94 -18z
m63 1 c4 -27 -15 -62 -33 -62 -10 0 -15 11 -15 33 0 53 41 78 48 29z m-985
-23 c-8 -29 -13 -23 -13 14 0 22 3 28 9 18 5 -7 6 -22 4 -32z m1167 11 c0 -11
-7 -20 -15 -20 -8 0 -15 9 -15 20 0 11 7 20 15 20 8 0 15 -9 15 -20z m33 -62
c6 -20 1 -85 -9 -135 -2 -13 -9 -23 -15 -23 -8 0 -9 12 -3 38 4 20 6 61 5 90
-2 52 12 71 22 30z m-47 -84 c17 -14 8 -45 -12 -37 -7 3 -17 -2 -20 -11 -3 -9
-9 -16 -13 -16 -8 0 -4 87 4 109 6 13 9 11 16 -9 6 -14 16 -30 25 -36z m-82
-2 c-2 -20 -6 -63 -9 -94 -4 -32 -11 -58 -17 -58 -10 0 -4 141 8 183 9 30 22
9 18 -31z m-329 -24 c-4 -29 -11 -62 -15 -73 -7 -19 -7 -19 -14 3 -4 12 -15
22 -26 22 -29 0 -32 17 -8 43 13 14 29 32 36 41 25 31 34 18 27 -36z m-121 1
c-4 -13 -7 -27 -6 -31 1 -5 -4 -8 -12 -8 -7 0 -19 -7 -27 -16 -11 -14 -14 -13
-29 6 -16 21 -17 21 -48 3 -23 -13 -34 -15 -43 -6 -17 17 -2 33 30 33 16 0 37
10 51 25 12 13 27 22 31 19 5 -3 17 -1 26 5 24 13 37 -2 27 -30z m3347 -2 c-8
-8 -11 -7 -11 4 0 20 13 34 18 19 3 -7 -1 -17 -7 -23z m-2841 -113 c0 -31 -23
-28 -28 4 -2 15 2 22 12 22 11 0 16 -9 16 -26z m45 -34 c3 -5 1 -10 -4 -10 -6
0 -11 5 -11 10 0 6 2 10 4 10 3 0 8 -4 11 -10z m-850 -65 c-41 -25 -109 -34
-120 -15 -3 6 -5 10 -3 10 2 0 21 7 43 15 22 8 58 14 80 15 l40 0 -40 -25z
m210 15 c-3 -5 -10 -10 -16 -10 -5 0 -9 5 -9 10 0 6 7 10 16 10 8 0 12 -4 9
-10z m635 -57 c13 -13 12 -17 -10 -35 -14 -12 -20 -23 -14 -25 6 -2 20 -10 30
-18 32 -24 0 -42 -89 -50 -74 -7 -79 -6 -84 14 -3 12 -13 21 -25 21 -14 0 -19
6 -16 23 3 20 8 22 65 22 34 0 65 3 69 7 7 8 -37 28 -61 28 -18 0 -28 17 -20
31 10 15 136 1 155 -18z m-578 -48 c0 -5 -5 -11 -11 -13 -6 -2 -11 4 -11 13 0
9 5 15 11 13 6 -2 11 -8 11 -13z m757 -10 c17 -17 15 -21 -21 -30 -19 -5 -32
-1 -47 14 -12 12 -19 27 -15 32 8 14 64 3 83 -16z m91 -34 c0 -26 -27 -34 -39
-12 -12 21 -5 31 21 31 11 0 18 -7 18 -19z m-1313 -34 c4 -7 35 -22 68 -32 33
-10 73 -24 88 -32 31 -15 29 -34 -3 -26 -12 3 -20 0 -20 -7 0 -8 -10 -9 -29
-5 -20 4 -30 2 -34 -9 -4 -10 -1 -13 9 -9 8 3 20 1 27 -5 14 -12 67 -4 67 9 0
20 37 7 70 -23 l35 -32 -40 -9 c-78 -16 -192 -25 -310 -23 -106 1 -120 3 -123
19 -3 12 5 19 27 23 33 7 43 37 16 48 -17 6 -20 32 -4 42 12 7 59 -14 59 -27
0 -4 11 -20 25 -35 19 -20 28 -25 37 -16 8 8 17 7 33 -4 12 -8 30 -12 39 -8
18 7 21 20 6 29 -5 3 -10 15 -10 26 0 11 -7 22 -15 25 -16 6 -45 58 -45 81 0
17 17 17 27 0z m1361 -33 l3 -29 -22 21 c-12 12 -18 27 -14 34 12 19 30 5 33
-26z m-1657 -104 c6 0 8 -4 4 -9 -6 -11 -65 -11 -65 0 0 10 22 18 38 13 8 -2
18 -4 23 -4z"/>
<path d="M4070 6380 c0 -5 -12 -16 -27 -24 -16 -8 -24 -15 -19 -16 5 0 3 -7
-4 -15 -20 -24 -50 -88 -50 -107 0 -34 22 -29 63 16 52 59 81 156 46 156 -5 0
-9 -4 -9 -10z"/>
<path d="M4136 6278 c-13 -25 -14 -33 -4 -39 8 -5 16 -2 21 6 4 8 21 15 37 15
16 0 32 5 35 10 11 17 -15 40 -45 40 -22 0 -32 -7 -44 -32z"/>
<path d="M4670 6427 c0 -21 17 -40 29 -33 18 11 13 33 -9 39 -12 3 -20 0 -20
-6z"/>
<path d="M4725 6300 c-3 -5 1 -10 10 -10 9 0 13 5 10 10 -3 6 -8 10 -10 10 -2
0 -7 -4 -10 -10z"/>
<path d="M3175 3420 c3 -5 11 -10 16 -10 6 0 7 5 4 10 -3 6 -11 10 -16 10 -6
0 -7 -4 -4 -10z"/>
<path d="M3174 3341 c-8 -9 -4 -51 6 -51 6 0 10 5 10 11 0 6 8 8 19 4 22 -7
34 6 25 29 -5 14 -48 19 -60 7z"/>
<path d="M3190 2421 c0 -6 5 -13 10 -16 6 -3 10 1 10 9 0 9 -4 16 -10 16 -5 0
-10 -4 -10 -9z"/>
<path d="M3747 3833 c-9 -9 12 -33 29 -33 17 0 18 12 2 28 -14 14 -22 15 -31
5z"/>
<path d="M3730 3745 c0 -8 7 -15 15 -15 9 0 12 6 9 15 -4 8 -10 15 -15 15 -5
0 -9 -7 -9 -15z"/>
<path d="M3630 3715 c-7 -8 -13 -31 -15 -52 -2 -21 -4 -45 -6 -53 -1 -8 -1
-32 -1 -52 2 -44 28 -53 38 -13 3 14 10 25 15 25 5 0 15 -11 21 -25 20 -44 98
-30 98 17 0 13 -8 18 -25 18 -36 0 -31 18 8 28 24 6 33 14 35 35 3 20 -3 29
-27 41 -36 19 -63 20 -79 4 -8 -8 -14 -5 -23 15 -14 31 -22 33 -39 12z m50
-92 c0 -5 -5 -15 -10 -23 -8 -12 -10 -11 -10 8 0 12 5 22 10 22 6 0 10 -3 10
-7z"/>
<path d="M3548 3683 c-6 -16 -12 -59 -12 -98 -1 -57 2 -70 15 -73 17 -3 21 14
32 121 3 21 7 41 11 44 7 7 -13 33 -25 33 -5 0 -15 -12 -21 -27z"/>
<path d="M3987 3704 c-8 -8 1 -24 14 -24 5 0 9 7 9 15 0 15 -12 20 -23 9z"/>
<path d="M3471 3683 c-12 -24 -33 -162 -26 -174 9 -14 31 -11 45 6 10 12 10
19 2 27 -17 17 -15 39 4 53 14 10 14 15 3 33 -11 18 -11 24 4 40 22 24 21 32
-3 32 -10 0 -23 -8 -29 -17z"/>
<path d="M3903 3674 c-3 -8 -17 -20 -31 -25 l-25 -10 22 -22 c26 -28 27 -46 4
-63 -23 -16 -8 -45 31 -59 21 -7 30 -5 46 11 17 17 18 24 9 58 -9 33 -8 41 5
48 26 15 20 57 -10 68 -35 14 -44 13 -51 -6z"/>
<path d="M3446 3448 c-22 -30 -20 -65 4 -95 11 -14 20 -31 20 -37 0 -6 -4 -5
-9 3 -5 7 -14 10 -20 7 -17 -11 -13 -41 9 -61 18 -16 21 -16 44 -1 14 8 32 13
41 10 8 -4 22 -1 30 6 12 10 18 10 31 -1 14 -11 19 -10 35 10 11 13 19 36 19
51 0 15 6 32 13 39 11 8 13 -2 12 -57 -1 -37 -5 -75 -8 -84 -4 -10 -10 -26
-13 -35 -5 -16 -7 -15 -15 5 -7 19 -12 21 -28 13 -10 -6 -21 -25 -25 -42 -10
-50 -7 -137 5 -144 14 -9 100 17 106 33 9 21 23 13 23 -12 0 -53 22 -71 45
-39 11 15 17 15 39 5 25 -11 28 -10 47 22 13 22 26 33 35 29 9 -3 14 1 14 12
0 12 -5 15 -20 10 -13 -4 -22 -1 -26 9 -7 19 12 46 32 46 24 0 104 63 104 82
0 22 -10 22 -55 4 -28 -12 -35 -21 -35 -43 l0 -28 -15 29 c-21 40 -19 56 9 56
36 0 49 23 41 71 l-7 41 -28 -27 -28 -26 -4 30 c-2 16 1 40 8 53 9 17 9 25 1
30 -23 15 -36 8 -47 -27 -18 -54 -27 -48 -44 28 -5 23 -12 27 -40 27 -20 0
-40 -8 -51 -20 -16 -18 -20 -18 -34 -6 -18 16 -80 24 -99 12 -6 -4 -12 -17
-12 -29 0 -12 -5 -29 -10 -37 -8 -12 -14 -10 -39 14 -33 31 -33 47 -1 39 15
-4 20 0 20 15 0 36 -51 43 -74 10z m373 -150 c-3 -75 -11 -92 -53 -100 -31 -7
-43 -5 -58 8 -29 27 -23 44 15 44 30 0 36 4 50 40 19 50 48 55 46 8z m-99
-168 c0 -5 -5 -10 -11 -10 -5 0 -7 5 -4 10 3 6 8 10 11 10 2 0 4 -4 4 -10z
m78 -27 c-4 -48 -28 -57 -28 -10 0 18 3 37 7 40 16 16 24 4 21 -30z"/>
<path d="M3925 3411 c-3 -5 -1 -12 5 -16 5 -3 10 1 10 9 0 18 -6 21 -15 7z"/>
<path d="M3493 3230 c-27 -11 -35 -39 -37 -133 l-1 -72 31 -3 c38 -4 64 19 64
55 0 22 -3 24 -30 18 -27 -6 -30 -4 -30 17 0 39 14 52 38 37 33 -21 48 0 36
48 -10 41 -30 50 -71 33z"/>
<path d="M4232 2870 c0 -14 2 -19 5 -12 2 6 2 18 0 25 -3 6 -5 1 -5 -13z"/>
<path d="M4735 8742 c13 -12 77 -34 83 -27 5 4 -21 16 -68 30 -16 5 -22 4 -15
-3z"/>
<path d="M3445 8370 c-4 -12 -5 -24 -2 -27 3 -2 8 5 12 17 4 12 5 24 2 27 -3
2 -8 -5 -12 -17z"/>
<path d="M3610 8361 c0 -5 5 -13 10 -16 6 -3 10 -2 10 4 0 5 -4 13 -10 16 -5
3 -10 2 -10 -4z"/>
<path d="M5301 8254 c0 -11 3 -14 6 -6 3 7 2 16 -1 19 -3 4 -6 -2 -5 -13z"/>
<path d="M3402 8240 c0 -14 2 -19 5 -12 2 6 2 18 0 25 -3 6 -5 1 -5 -13z"/>
<path d="M3386 8164 c-4 -20 -5 -38 -2 -41 2 -3 8 11 12 31 3 21 4 39 1 42 -2
3 -8 -11 -11 -32z"/>
<path d="M5311 8103 c1 -10 5 -31 9 -48 7 -27 8 -25 9 18 0 26 -3 47 -9 47 -5
0 -9 -8 -9 -17z"/>
<path d="M3373 8005 c0 -22 2 -30 4 -17 2 12 2 30 0 40 -3 9 -5 -1 -4 -23z"/>
<path d="M5332 7900 c0 -19 4 -46 8 -60 8 -24 8 -24 8 5 0 17 -4 44 -8 60 l-8
30 0 -35z"/>
<path d="M3352 7755 c0 -16 2 -22 5 -12 2 9 2 23 0 30 -3 6 -5 -1 -5 -18z"/>
<path d="M5344 7635 c2 -63 6 -118 9 -122 4 -3 7 48 7 115 0 70 -4 122 -9 122
-6 0 -9 -48 -7 -115z"/>
<path d="M3336 7635 c-4 -22 -9 -48 -11 -58 -2 -9 1 -15 6 -12 11 7 22 68 17
92 -3 11 -8 2 -12 -22z"/>
<path d="M3286 7503 c-6 -14 -5 -15 5 -6 7 7 10 15 7 18 -3 3 -9 -2 -12 -12z"/>
<path d="M3558 7493 c-25 -16 -48 -51 -48 -75 0 -13 65 47 81 75 12 21 2 21
-33 0z"/>
<path d="M5010 7443 c0 -15 34 -83 42 -83 13 0 9 28 -7 60 -14 27 -35 41 -35
23z"/>
<path d="M3180 7279 c-7 -11 -10 -23 -7 -25 2 -2 9 7 15 21 14 30 7 33 -8 4z"/>
<path d="M3127 7146 c-4 -10 -7 -25 -6 -34 0 -11 4 -9 10 7 5 13 8 29 6 35 -2
5 -6 2 -10 -8z"/>
<path d="M3506 7101 c-4 -5 -2 -12 3 -15 5 -4 12 -2 15 3 4 5 2 12 -3 15 -5 4
-12 2 -15 -3z"/>
<path d="M3240 6449 c0 -5 5 -7 10 -4 6 3 10 8 10 11 0 2 -4 4 -10 4 -5 0 -10
-5 -10 -11z"/>
<path d="M2950 5220 c0 -5 5 -10 10 -10 6 0 10 5 10 10 0 6 -4 10 -10 10 -5 0
-10 -4 -10 -10z"/>
<path d="M2975 5109 c-19 -17 -35 -38 -35 -47 0 -12 4 -11 20 6 12 12 32 29
45 38 25 17 33 34 15 34 -5 0 -25 -14 -45 -31z"/>
<path d="M5162 4898 c3 -7 13 -15 24 -17 16 -3 17 -1 5 13 -16 19 -34 21 -29
4z"/>
<path d="M2190 3755 c0 -8 7 -15 16 -15 14 0 14 3 4 15 -7 8 -14 15 -16 15 -2
0 -4 -7 -4 -15z"/>
<path d="M2252 3593 c-10 -4 -10 -8 -1 -19 13 -16 29 -10 29 12 0 15 -6 16
-28 7z"/>
<path d="M2260 3510 c0 -5 7 -10 15 -10 8 0 15 5 15 10 0 6 -7 10 -15 10 -8 0
-15 -4 -15 -10z"/>
<path d="M2114 3429 c-3 -5 6 -9 20 -9 31 0 34 6 6 13 -11 3 -23 1 -26 -4z"/>
<path d="M1955 2629 c-4 -6 -5 -12 -2 -15 2 -3 7 2 10 11 7 17 1 20 -8 4z"/>
<path d="M1950 2415 c0 -8 5 -15 10 -15 6 0 10 7 10 15 0 8 -4 15 -10 15 -5 0
-10 -7 -10 -15z"/>
<path d="M1923 2363 c-13 -5 -8 -49 7 -66 9 -10 37 1 44 18 6 16 -34 54 -51
48z"/>
</g>
</svg>
